<?xml version="1.0" standalone="no"?>
<!DOCTYPE svg PUBLIC "-//W3C//DTD SVG 20010904//EN"
 "http://www.w3.org/TR/2001/REC-SVG-20010904/DTD/svg10.dtd">
<svg version="1.0" xmlns="http://www.w3.org/2000/svg"
 width="1318.000000pt" height="1318.000000pt" viewBox="0 0 1318.000000 1318.000000"
 preserveAspectRatio="xMidYMid meet">
<metadata>
Created by potrace 1.14, written by Peter Selinger 2001-2017
</metadata>
<g transform="translate(0.000000,1318.000000) scale(0.100000,-0.100000)"
fill="#000000" stroke="none">
<path d="M6620 8969 c-47 -4 -112 -11 -145 -14 -33 -4 -71 -8 -85 -9 -14 -2
-47 -7 -75 -11 -27 -4 -59 -9 -70 -10 -11 -1 -20 -3 -20 -4 0 -1 -11 -4 -25
-6 -14 -2 -38 -6 -55 -9 -16 -4 -46 -9 -65 -12 -19 -3 -44 -8 -55 -11 -11 -4
-24 -8 -30 -9 -14 -2 -128 -27 -140 -30 -70 -18 -173 -46 -185 -51 -8 -3 -22
-7 -32 -9 -9 -2 -42 -14 -75 -26 -32 -12 -60 -23 -63 -23 -28 -5 -110 -61
-110 -76 0 -13 125 -66 162 -70 4 0 22 -5 40 -10 18 -6 44 -12 58 -15 14 -3
34 -8 45 -11 11 -4 23 -8 28 -9 4 -1 9 -3 12 -4 7 -4 16 -6 60 -15 22 -4 45
-10 50 -14 6 -3 15 -6 21 -7 6 -1 38 -10 70 -19 33 -10 64 -18 69 -20 6 -1 17
-5 25 -8 8 -3 49 -15 90 -27 41 -12 86 -26 100 -31 24 -9 46 -15 100 -26 32
-7 262 -10 274 -4 17 8 149 13 331 12 153 0 320 -6 320 -11 0 -1 20 -3 45 -6
72 -7 266 -40 350 -60 14 -3 32 -7 40 -8 9 -1 21 -5 28 -10 6 -4 12 -5 12 -2
0 3 18 -1 40 -9 22 -8 44 -15 48 -15 4 0 25 -6 47 -12 22 -7 48 -13 58 -14 10
-1 23 -6 30 -13 6 -6 23 -11 37 -11 14 0 31 -5 37 -11 6 -6 17 -12 24 -13 16
-3 28 -8 134 -49 44 -18 83 -31 88 -29 4 1 7 -2 7 -8 0 -5 6 -10 13 -10 7 0
35 -11 63 -24 27 -13 67 -31 89 -40 22 -10 48 -22 58 -27 29 -15 51 -26 79
-39 15 -7 26 -16 24 -19 -3 -4 -5 -123 -7 -266 -1 -143 -5 -264 -7 -269 -3 -5
-6 -30 -7 -55 -4 -69 -17 -189 -30 -276 -4 -22 -8 -52 -11 -67 -4 -29 -11 -68
-19 -118 -4 -25 -13 -64 -40 -180 -2 -8 -8 -30 -14 -48 -5 -18 -10 -35 -10
-37 -1 -3 -1 -6 -2 -7 0 -2 -2 -10 -4 -18 -41 -190 -91 -338 -168 -502 l-32
-67 -220 110 c-121 60 -229 114 -240 121 -11 7 -22 13 -25 13 -3 1 -117 56
-253 123 -136 67 -250 122 -252 122 -2 0 -30 12 -62 26 -92 42 -114 51 -188
79 -38 14 -79 30 -90 35 -11 4 -63 22 -115 40 -52 17 -102 34 -110 37 -8 3
-20 7 -26 8 -7 2 -38 12 -70 24 -67 23 -250 81 -277 86 -10 2 -55 15 -100 29
-45 14 -109 32 -142 41 -33 9 -83 23 -112 30 -79 22 -106 27 -138 29 l-30 1 1
-60 c1 -33 4 -78 8 -100 10 -51 76 -285 87 -306 4 -9 11 -31 14 -50 3 -19 10
-35 16 -37 5 -2 9 -12 9 -23 0 -11 13 -49 29 -84 17 -36 28 -65 25 -65 -9 0
144 -288 185 -348 22 -33 41 -66 41 -71 0 -6 4 -11 8 -11 4 0 16 -15 26 -32
21 -36 94 -137 110 -153 6 -5 33 -37 61 -70 67 -82 295 -311 357 -360 28 -22
56 -45 62 -50 34 -32 116 -51 116 -26 0 4 13 14 28 23 43 26 126 103 351 326
112 111 209 202 215 202 7 0 16 -4 22 -9 5 -5 52 -32 104 -59 330 -171 523
-283 709 -409 51 -34 97 -63 101 -63 5 0 10 -4 12 -8 2 -4 26 -23 53 -42 28
-19 52 -37 55 -40 3 -3 28 -23 55 -45 28 -22 61 -49 74 -60 45 -37 134 -120
155 -144 12 -13 31 -34 43 -46 12 -13 19 -26 16 -29 -4 -3 -2 -6 4 -6 19 0 69
-113 65 -147 -4 -39 -52 -93 -107 -121 -82 -41 -206 -74 -287 -76 -16 -1 -28
-3 -28 -6 0 -3 -37 -5 -81 -6 -65 0 -84 -3 -94 -17 -17 -24 -7 -56 19 -62 11
-2 44 -9 71 -14 28 -6 61 -13 75 -15 14 -3 50 -10 80 -16 30 -6 71 -13 90 -16
19 -3 37 -7 40 -9 3 -2 33 -7 65 -10 33 -4 69 -9 80 -11 11 -2 52 -7 90 -10
39 -3 95 -7 125 -10 30 -3 64 -5 75 -4 19 1 57 1 93 -1 29 -2 235 10 261 16
107 21 197 82 236 158 36 73 24 194 -34 321 -25 56 -82 150 -100 166 -3 3 -31
34 -61 70 -107 128 -414 425 -553 535 -21 17 -44 35 -50 41 -7 5 -69 53 -138
105 l-127 95 19 38 c10 21 23 44 30 52 6 8 9 14 5 14 -3 0 3 15 13 34 28 49
120 301 121 329 0 9 5 17 12 17 6 0 9 3 6 6 -4 3 -2 20 4 37 15 50 49 170 54
190 2 9 6 27 9 38 2 12 9 36 14 53 10 29 20 75 26 121 2 11 4 20 5 20 2 0 11
37 15 65 1 14 4 25 5 25 1 0 3 11 5 25 4 26 9 62 19 115 9 53 28 200 31 241 1
17 5 36 9 42 4 7 2 12 -4 12 -6 0 -8 5 -4 12 4 7 9 26 10 43 12 141 17 350 18
693 l1 404 -40 22 c-22 13 -67 38 -100 56 -33 18 -89 49 -125 69 -85 48 -216
111 -229 111 -6 0 -11 5 -11 10 0 6 -6 10 -12 10 -7 0 -41 13 -75 29 -34 16
-64 27 -67 24 -3 -4 -6 0 -6 7 0 7 -3 11 -6 8 -3 -4 -34 7 -69 23 -36 16 -71
29 -80 29 -8 0 -15 4 -15 8 0 5 -6 9 -12 9 -7 1 -74 21 -148 46 -114 38 -182
58 -280 83 -68 16 -100 24 -130 29 -19 3 -48 10 -65 15 -16 5 -61 13 -100 19
-38 6 -86 13 -105 16 -49 8 -75 11 -157 20 -40 3 -85 9 -100 11 -51 8 -536 10
-623 3z"/>
<path d="M4257 8415 c-1 -2 -33 -5 -72 -9 -38 -4 -90 -9 -115 -13 -25 -3 -55
-6 -67 -7 -13 0 -23 -3 -23 -6 0 -3 -14 -7 -30 -8 -47 -4 -177 -50 -255 -90
-122 -64 -241 -196 -260 -287 -3 -17 -8 -41 -11 -55 -20 -91 -4 -292 31 -402
56 -177 196 -414 349 -591 10 -12 30 -38 45 -57 14 -19 33 -42 41 -51 8 -9 67
-74 130 -145 159 -178 193 -208 219 -194 27 14 27 46 -2 101 -27 52 -50 92
-57 99 -20 18 -70 90 -70 99 0 6 -4 11 -8 11 -5 0 -30 39 -57 88 -27 48 -53
89 -57 90 -4 2 -8 11 -8 21 0 9 -4 21 -9 26 -24 27 -100 242 -118 335 -9 50
-10 176 -1 202 12 35 106 126 165 160 52 30 123 53 211 70 79 14 412 18 413 4
1 -6 0 -36 0 -66 -2 -71 -2 -51 4 -230 4 -148 12 -305 15 -305 1 0 3 -18 5
-40 2 -22 6 -58 10 -80 3 -22 8 -56 10 -75 8 -59 25 -175 31 -204 2 -11 6 -32
9 -46 9 -49 36 -176 46 -215 5 -22 12 -57 16 -77 3 -21 9 -38 13 -38 5 0 7 -8
6 -17 -2 -10 0 -27 5 -38 4 -11 20 -60 34 -110 32 -107 62 -199 79 -240 7 -16
19 -46 26 -65 7 -19 24 -59 37 -88 12 -29 23 -57 23 -62 0 -6 4 -10 8 -10 5 0
9 -6 9 -12 0 -11 89 -196 144 -297 37 -69 113 -197 136 -227 13 -17 23 -34 23
-38 0 -4 6 -14 13 -21 27 -31 37 -44 37 -51 0 -3 10 -19 23 -34 12 -16 38 -50
57 -77 19 -26 40 -53 45 -59 6 -6 21 -25 35 -43 13 -18 33 -43 45 -55 11 -12
43 -49 70 -81 61 -72 365 -370 365 -359 0 3 6 -1 14 -8 40 -39 195 -165 256
-208 19 -13 40 -28 45 -33 19 -16 285 -196 285 -192 0 1 30 -17 68 -42 37 -24
103 -62 147 -84 l80 -40 50 26 c51 27 212 123 230 137 6 4 60 40 120 80 140
93 179 121 183 131 2 4 10 7 17 7 7 0 15 3 17 8 2 4 41 36 88 72 47 35 90 69
96 74 6 6 30 27 54 46 80 66 134 115 229 210 117 116 165 172 198 227 22 38
23 45 11 70 -7 15 -33 42 -58 60 -25 18 -49 37 -55 41 -5 4 -26 17 -45 28 -19
10 -37 21 -40 24 -23 23 -213 112 -249 117 -36 5 -42 1 -108 -64 -62 -60 -156
-147 -218 -201 -11 -10 -45 -38 -75 -62 -30 -25 -57 -47 -60 -51 -6 -7 -218
-168 -246 -186 -11 -7 -45 -31 -77 -53 -58 -40 -87 -50 -87 -28 0 6 -3 9 -6 5
-3 -3 -13 1 -22 8 -39 31 -113 85 -117 85 -5 0 -37 25 -60 48 -8 6 -16 12 -20
12 -8 0 -68 47 -185 144 -100 84 -337 318 -405 400 -22 27 -45 54 -50 60 -20
21 -131 172 -175 236 -24 36 -47 67 -52 68 -4 2 -8 8 -8 14 0 6 -18 39 -40 74
-22 35 -40 68 -40 73 0 5 -3 11 -7 13 -7 2 -76 133 -79 148 -1 4 -23 55 -64
145 -5 11 -32 70 -60 130 -29 61 -53 117 -55 125 -2 8 -11 40 -20 70 -19 67
-25 88 -31 120 -3 14 -9 39 -14 55 -5 17 -12 41 -15 55 -2 14 -9 43 -14 65 -9
40 -26 118 -36 165 -2 14 -7 36 -10 50 -8 36 -13 63 -19 105 -4 20 -8 40 -10
44 -2 3 -7 33 -10 66 -4 33 -9 67 -12 76 -12 43 -28 438 -18 476 8 28 35 24
214 -26 41 -12 89 -24 105 -28 17 -3 36 -10 43 -16 6 -5 12 -7 12 -4 0 3 15 1
33 -5 17 -5 46 -13 62 -18 17 -4 75 -22 130 -39 55 -18 109 -34 119 -36 35 -8
404 -135 528 -181 68 -26 150 -57 183 -69 33 -12 83 -31 110 -43 28 -11 93
-37 145 -58 131 -52 431 -173 455 -184 31 -14 158 -70 180 -79 64 -27 245
-105 274 -118 18 -8 40 -16 47 -17 7 -1 17 -5 20 -9 4 -4 16 -7 26 -7 10 0 18
-4 18 -8 0 -4 11 -9 25 -10 22 -2 37 10 41 33 1 6 11 57 23 115 11 58 22 125
25 150 10 87 18 145 22 175 7 42 14 178 18 332 3 137 3 138 -39 149 -5 1 -84
27 -175 57 -91 30 -183 58 -204 61 -21 4 -42 9 -47 12 -5 3 -17 7 -26 9 -121
25 -175 35 -213 39 -25 3 -55 8 -67 10 -41 8 -197 19 -311 21 -62 1 -115 5
-118 8 -3 3 -17 2 -30 -3 -13 -5 -24 -6 -24 -2 0 4 -24 7 -53 7 -28 0 -61 3
-73 6 -11 4 -34 10 -50 13 -65 11 -148 36 -454 136 -199 65 -534 163 -600 176
-14 3 -39 9 -57 15 -17 5 -44 12 -60 15 -15 3 -53 11 -83 19 -55 14 -77 19
-135 30 -16 3 -43 8 -60 12 -16 4 -32 7 -35 8 -3 1 -27 4 -53 9 -27 4 -58 9
-70 12 -60 11 -178 27 -282 38 -16 2 -61 7 -100 11 -62 7 -411 15 -418 10z"/>
</g>
</svg>
