<?xml version="1.0" standalone="no"?>
<!DOCTYPE svg PUBLIC "-//W3C//DTD SVG 20010904//EN"
 "http://www.w3.org/TR/2001/REC-SVG-20010904/DTD/svg10.dtd">
<svg version="1.0" xmlns="http://www.w3.org/2000/svg"
 width="494.000000pt" height="336.000000pt" viewBox="0 0 494.000000 336.000000"
 preserveAspectRatio="xMidYMid meet">
<metadata>
Created by potrace 1.16, written by Peter Selinger 2001-2019
</metadata>
<g transform="translate(0.000000,336.000000) scale(0.100000,-0.100000)"
fill="#0A6894" stroke="none">
<path d="M2455 2570 c-177 -15 -435 -83 -435 -114 0 -7 34 -20 78 -31 42 -10
125 -33 183 -51 103 -33 108 -33 207 -25 216 19 435 -21 650 -120 l82 -38 0
-108 c0 -117 -20 -273 -46 -368 -9 -33 -20 -77 -25 -97 -5 -21 -20 -62 -33
-93 l-25 -55 -168 84 c-218 110 -262 129 -418 182 -108 37 -308 94 -329 94
-26 0 34 -212 90 -324 25 -50 74 -127 109 -172 74 -94 191 -204 218 -204 10 0
66 48 125 107 l106 107 110 -58 c235 -123 424 -270 442 -342 6 -22 2 -32 -19
-50 -28 -24 -104 -44 -167 -44 -29 0 -40 -4 -40 -15 0 -8 3 -15 8 -15 4 0 52
-10 107 -21 133 -28 316 -31 362 -6 69 37 78 89 32 185 -28 58 -184 216 -296
301 l-83 62 20 39 c27 53 66 171 91 276 34 143 49 289 49 484 l0 185 -77 43
c-291 162 -594 229 -908 202z"/>
<path d="M1553 2360 c-95 -10 -167 -35 -209 -73 -51 -44 -64 -76 -64 -154 1
-77 24 -143 82 -234 49 -77 209 -260 222 -256 23 8 15 34 -25 87 -63 83 -112
193 -117 262 -4 56 -3 60 31 92 42 40 99 56 196 56 l71 0 0 -97 c1 -179 44
-414 107 -578 126 -326 321 -557 641 -759 49 -31 95 -56 102 -56 19 0 181 104
278 180 106 82 212 191 212 218 0 14 -22 33 -78 66 -43 25 -87 46 -96 46 -10
0 -28 -13 -42 -30 -30 -35 -160 -144 -227 -189 l-48 -32 -81 58 c-188 134
-342 324 -422 518 -16 39 -33 75 -37 80 -12 17 -59 215 -75 315 -15 102 -19
220 -6 220 15 0 192 -50 302 -85 143 -46 399 -146 582 -227 76 -34 141 -59
143 -56 12 12 37 189 38 268 l2 85 -85 29 c-115 38 -216 55 -336 56 -95 0
-109 3 -280 59 -323 107 -592 152 -781 131z"/>
</g>
</svg>
